<svg width="180" height="180" viewBox="0 0 180 180" fill="none" xmlns="http://www.w3.org/2000/svg">
<rect width="180" height="180" fill="black" fill-opacity="0.8"/>
<g clip-path="url(#clip0_118_14)">
<path d="M57.3255 59.2173H89.9102C95.9257 59.1866 101.106 59.7252 105.45 60.8331C109.825 61.9103 113.426 63.4644 116.251 65.4957C119.077 67.527 121.158 69.9736 122.495 72.836C123.862 75.6674 124.545 78.8219 124.545 82.2997C124.545 85.3465 123.908 88.2703 122.631 91.071C121.386 93.8409 119.441 96.2877 116.798 98.4112C114.185 100.535 110.843 102.228 106.772 103.489C102.731 104.751 97.9158 105.382 92.3254 105.382H83.6666V127.818H57.3255V59.2173ZM83.6666 95.3182C85.7629 95.2875 87.6314 94.9643 89.272 94.3486C90.9128 93.7024 92.2951 92.8253 93.4193 91.7174C94.5435 90.5786 95.394 89.2245 95.9712 87.6548C96.5791 86.0544 96.8829 84.2694 96.8829 82.2997C96.8829 80.3609 96.5791 78.6066 95.9712 77.0369C95.3636 75.4674 94.4826 74.1287 93.328 73.0206C92.2041 71.8818 90.8216 70.9893 89.181 70.3431C87.5708 69.6968 85.7326 69.3428 83.6666 69.2813V95.3182Z" fill="#EDE1CF"/>
<path d="M38.2963 137.681V43.1358" stroke="#E58E00" stroke-width="3"/>
<path d="M136 90V43" stroke="#E58E00" stroke-width="3"/>
<path d="M37 138.455H137.333" stroke="#E58E00" stroke-width="3"/>
<path d="M37 43.9091H137.333" stroke="#E58E00" stroke-width="3"/>
</g>
<defs>
<clipPath id="clip0_118_14">
<rect width="105" height="104" fill="white" transform="translate(37 38)"/>
</clipPath>
</defs>
</svg>
