<svg width="284" height="40" viewBox="0 0 284 40" fill="none" xmlns="http://www.w3.org/2000/svg">
<path d="M0.710938 0.976562H14.6758C17.2539 0.963542 19.474 1.19141 21.3359 1.66016C23.2109 2.11589 24.7539 2.77344 25.9648 3.63281C27.1758 4.49219 28.0677 5.52734 28.6406 6.73828C29.2266 7.9362 29.5195 9.27083 29.5195 10.7422C29.5195 12.0312 29.2461 13.2682 28.6992 14.4531C28.1654 15.625 27.332 16.6602 26.1992 17.5586C25.0794 18.457 23.6471 19.1732 21.9023 19.707C20.1706 20.2409 18.1068 20.5078 15.7109 20.5078H12V30H0.710938V0.976562ZM12 16.25C12.8984 16.237 13.6992 16.1003 14.4023 15.8398C15.1055 15.5664 15.6979 15.1953 16.1797 14.7266C16.6615 14.2448 17.026 13.6719 17.2734 13.0078C17.5339 12.3307 17.6641 11.5755 17.6641 10.7422C17.6641 9.92188 17.5339 9.17969 17.2734 8.51562C17.013 7.85156 16.6354 7.28516 16.1406 6.81641C15.6589 6.33464 15.0664 5.95703 14.3633 5.68359C13.6732 5.41016 12.8854 5.26042 12 5.23438V16.25ZM33.2109 10.6445H42.5664L43.5039 13.457C44.2461 12.9102 44.9427 12.4414 45.5938 12.0508C46.2578 11.6471 46.8958 11.3151 47.5078 11.0547C48.1328 10.7812 48.7318 10.5859 49.3047 10.4688C49.8906 10.3385 50.4701 10.2734 51.043 10.2734C51.8763 10.2734 52.625 10.3906 53.2891 10.625C53.9661 10.8594 54.5391 11.1914 55.0078 11.6211C55.4896 12.0508 55.8542 12.5651 56.1016 13.1641C56.362 13.75 56.4922 14.401 56.4922 15.1172C56.4922 15.8333 56.3359 16.4909 56.0234 17.0898C55.724 17.6888 55.2812 18.2096 54.6953 18.6523C54.1094 19.082 53.3867 19.4206 52.5273 19.668C51.681 19.9023 50.7109 20.0195 49.6172 20.0195L46.1797 15.4297C45.8021 15.4297 45.3919 15.5078 44.9492 15.6641C44.5065 15.8203 44.1289 16.0677 43.8164 16.4062V30H33.2109V10.6445ZM58.2695 20.332C58.2695 18.7956 58.582 17.4089 59.207 16.1719C59.8451 14.9349 60.7565 13.8802 61.9414 13.0078C63.1393 12.1354 64.5977 11.4648 66.3164 10.9961C68.0352 10.5143 69.9883 10.2734 72.1758 10.2734C74.3633 10.2734 76.3164 10.5143 78.0352 10.9961C79.7539 11.4648 81.2057 12.1354 82.3906 13.0078C83.5885 13.8802 84.5 14.9349 85.125 16.1719C85.763 17.4089 86.082 18.7956 86.082 20.332C86.082 21.8555 85.763 23.2357 85.125 24.4727C84.5 25.7096 83.5885 26.7643 82.3906 27.6367C81.2057 28.5091 79.7539 29.1862 78.0352 29.668C76.3164 30.1367 74.3633 30.3711 72.1758 30.3711C69.9883 30.3711 68.0352 30.1367 66.3164 29.668C64.5977 29.1862 63.1393 28.5091 61.9414 27.6367C60.7565 26.7643 59.8451 25.7096 59.207 24.4727C58.582 23.2357 58.2695 21.8555 58.2695 20.332ZM72.1758 26.7969C72.6576 26.7969 73.0872 26.6992 73.4648 26.5039C73.8424 26.3086 74.1549 25.9701 74.4023 25.4883C74.6497 24.9935 74.8385 24.3294 74.9688 23.4961C75.099 22.6628 75.1641 21.6081 75.1641 20.332C75.1641 19.043 75.099 17.9818 74.9688 17.1484C74.8385 16.3151 74.6497 15.6576 74.4023 15.1758C74.1549 14.681 73.8424 14.3359 73.4648 14.1406C73.0872 13.9453 72.6576 13.8477 72.1758 13.8477C71.681 13.8477 71.2448 13.9453 70.8672 14.1406C70.5026 14.3359 70.1966 14.681 69.9492 15.1758C69.7018 15.6576 69.513 16.3151 69.3828 17.1484C69.2526 17.9818 69.1875 19.043 69.1875 20.332C69.1875 21.6081 69.2526 22.6628 69.3828 23.4961C69.513 24.3294 69.7018 24.9935 69.9492 25.4883C70.1966 25.9701 70.5026 26.3086 70.8672 26.5039C71.2448 26.6992 71.681 26.7969 72.1758 26.7969ZM91.043 25C91.5768 25.2865 92.0911 25.5469 92.5859 25.7812C93.0807 26.0156 93.5755 26.2174 94.0703 26.3867C94.5651 26.543 95.0599 26.6667 95.5547 26.7578C96.0625 26.849 96.5898 26.8945 97.1367 26.8945C97.9961 26.8945 98.6146 26.7904 98.9922 26.582C99.3698 26.3737 99.5586 26.1003 99.5586 25.7617C99.5586 25.5534 99.4935 25.3776 99.3633 25.2344C99.2461 25.0911 99.0768 24.9674 98.8555 24.8633C98.6341 24.7461 98.3737 24.6419 98.0742 24.5508C97.7747 24.4466 97.4427 24.3424 97.0781 24.2383L95.9648 23.9062C94.8711 23.5807 93.9271 23.2031 93.1328 22.7734C92.3385 22.3307 91.6875 21.8359 91.1797 21.2891C90.6719 20.7422 90.2943 20.1562 90.0469 19.5312C89.7995 18.8932 89.6758 18.2161 89.6758 17.5C89.6758 16.5755 89.8841 15.6836 90.3008 14.8242C90.7174 13.9518 91.362 13.1771 92.2344 12.5C93.1068 11.8229 94.2201 11.2826 95.5742 10.8789C96.9414 10.4753 98.5625 10.2734 100.438 10.2734C101.141 10.2734 101.87 10.319 102.625 10.4102C103.393 10.4883 104.135 10.5924 104.852 10.7227C105.568 10.8529 106.238 11.0026 106.863 11.1719C107.488 11.3281 108.016 11.4909 108.445 11.6602L106.727 14.8047C106.44 14.6484 106.102 14.5117 105.711 14.3945C105.333 14.2643 104.943 14.1536 104.539 14.0625C104.135 13.9583 103.745 13.8802 103.367 13.8281C103.003 13.776 102.69 13.75 102.43 13.75C101.674 13.75 101.134 13.8542 100.809 14.0625C100.483 14.2708 100.32 14.5247 100.32 14.8242C100.32 14.9414 100.353 15.0651 100.418 15.1953C100.483 15.3255 100.613 15.4622 100.809 15.6055C101.004 15.7487 101.277 15.8984 101.629 16.0547C101.98 16.2109 102.443 16.3737 103.016 16.543L104.109 16.875C105.32 17.2396 106.323 17.6497 107.117 18.1055C107.924 18.5612 108.569 19.056 109.051 19.5898C109.546 20.1107 109.891 20.6641 110.086 21.25C110.294 21.8359 110.398 22.4349 110.398 23.0469C110.398 23.9844 110.171 24.8958 109.715 25.7812C109.259 26.6667 108.53 27.4479 107.527 28.125C106.538 28.8021 105.255 29.349 103.68 29.7656C102.104 30.1693 100.197 30.3711 97.957 30.3711C96.9935 30.3711 96.1081 30.332 95.3008 30.2539C94.4935 30.1758 93.7318 30.0586 93.0156 29.9023C92.2995 29.7461 91.6094 29.5573 90.9453 29.3359C90.2943 29.1016 89.6497 28.8411 89.0117 28.5547L91.043 25ZM114.5 10.6445H124.266L125.086 13.1836C125.451 12.832 125.887 12.4805 126.395 12.1289C126.902 11.7773 127.462 11.4648 128.074 11.1914C128.686 10.918 129.344 10.6966 130.047 10.5273C130.763 10.3581 131.505 10.2734 132.273 10.2734C133.745 10.2734 135.125 10.4883 136.414 10.918C137.703 11.3477 138.829 11.9857 139.793 12.832C140.757 13.6784 141.512 14.7266 142.059 15.9766C142.618 17.2266 142.898 18.6784 142.898 20.332C142.898 21.8555 142.632 23.2357 142.098 24.4727C141.577 25.6966 140.822 26.7513 139.832 27.6367C138.842 28.5091 137.638 29.1862 136.219 29.668C134.812 30.1367 133.23 30.3711 131.473 30.3711C130.132 30.3711 128.921 30.2148 127.84 29.9023C126.772 29.5768 125.861 29.1276 125.105 28.5547V39.668H114.5V10.6445ZM125.105 25.9961C125.431 26.2956 125.796 26.5299 126.199 26.6992C126.603 26.8685 127.007 26.9531 127.41 26.9531C128.061 26.9531 128.66 26.8359 129.207 26.6016C129.767 26.3542 130.249 25.9766 130.652 25.4688C131.069 24.9609 131.388 24.3164 131.609 23.5352C131.844 22.7409 131.961 21.7904 131.961 20.6836C131.961 19.5638 131.85 18.6068 131.629 17.8125C131.421 17.0182 131.128 16.3737 130.75 15.8789C130.372 15.3711 129.923 15 129.402 14.7656C128.882 14.5312 128.309 14.4141 127.684 14.4141C127.189 14.4141 126.72 14.5052 126.277 14.6875C125.835 14.8568 125.444 15.0911 125.105 15.3906V25.9961ZM145.848 20.2148C145.848 19.0951 146.023 18.0729 146.375 17.1484C146.727 16.224 147.208 15.3971 147.82 14.668C148.445 13.9258 149.181 13.2812 150.027 12.7344C150.874 12.1875 151.792 11.7318 152.781 11.3672C153.771 11.0026 154.806 10.7292 155.887 10.5469C156.967 10.3646 158.061 10.2734 159.168 10.2734C160.626 10.2734 161.948 10.4232 163.133 10.7227C164.331 11.0091 165.392 11.4062 166.316 11.9141C167.254 12.4219 168.061 13.0143 168.738 13.6914C169.428 14.3685 169.995 15.0911 170.438 15.8594C170.893 16.6146 171.225 17.3958 171.434 18.2031C171.655 19.0104 171.766 19.7982 171.766 20.5664L157 22.3438C157.286 23.7891 157.859 24.9089 158.719 25.7031C159.578 26.4974 160.783 26.8945 162.332 26.8945C163.178 26.8945 163.966 26.7904 164.695 26.582C165.438 26.3737 166.017 26.1198 166.434 25.8203L167.996 28.5547C167.514 28.8021 166.987 29.0365 166.414 29.2578C165.854 29.4792 165.229 29.6745 164.539 29.8438C163.862 30 163.107 30.1237 162.273 30.2148C161.453 30.319 160.548 30.3711 159.559 30.3711C157.189 30.3711 155.145 30.0977 153.426 29.5508C151.707 28.9909 150.281 28.2487 149.148 27.3242C148.029 26.3867 147.195 25.306 146.648 24.082C146.115 22.8581 145.848 21.569 145.848 20.2148ZM162.293 18.5742C162.293 16.8815 162.078 15.651 161.648 14.8828C161.232 14.1146 160.607 13.7305 159.773 13.7305C159.344 13.7305 158.947 13.8346 158.582 14.043C158.217 14.2513 157.905 14.5768 157.645 15.0195C157.384 15.4622 157.176 16.0352 157.02 16.7383C156.863 17.4284 156.779 18.2682 156.766 19.2578L162.293 18.5742ZM175.438 10.6445H184.793L185.73 13.457C186.473 12.9102 187.169 12.4414 187.82 12.0508C188.484 11.6471 189.122 11.3151 189.734 11.0547C190.359 10.7812 190.958 10.5859 191.531 10.4688C192.117 10.3385 192.697 10.2734 193.27 10.2734C194.103 10.2734 194.852 10.3906 195.516 10.625C196.193 10.8594 196.766 11.1914 197.234 11.6211C197.716 12.0508 198.081 12.5651 198.328 13.1641C198.589 13.75 198.719 14.401 198.719 15.1172C198.719 15.8333 198.562 16.4909 198.25 17.0898C197.951 17.6888 197.508 18.2096 196.922 18.6523C196.336 19.082 195.613 19.4206 194.754 19.668C193.908 19.9023 192.938 20.0195 191.844 20.0195L188.406 15.4297C188.029 15.4297 187.618 15.5078 187.176 15.6641C186.733 15.8203 186.355 16.0677 186.043 16.4062V30H175.438V10.6445ZM200.496 20.332C200.496 18.7956 200.809 17.4089 201.434 16.1719C202.072 14.9349 202.983 13.8802 204.168 13.0078C205.366 12.1354 206.824 11.4648 208.543 10.9961C210.262 10.5143 212.215 10.2734 214.402 10.2734C216.59 10.2734 218.543 10.5143 220.262 10.9961C221.98 11.4648 223.432 12.1354 224.617 13.0078C225.815 13.8802 226.727 14.9349 227.352 16.1719C227.99 17.4089 228.309 18.7956 228.309 20.332C228.309 21.8555 227.99 23.2357 227.352 24.4727C226.727 25.7096 225.815 26.7643 224.617 27.6367C223.432 28.5091 221.98 29.1862 220.262 29.668C218.543 30.1367 216.59 30.3711 214.402 30.3711C212.215 30.3711 210.262 30.1367 208.543 29.668C206.824 29.1862 205.366 28.5091 204.168 27.6367C202.983 26.7643 202.072 25.7096 201.434 24.4727C200.809 23.2357 200.496 21.8555 200.496 20.332ZM214.402 26.7969C214.884 26.7969 215.314 26.6992 215.691 26.5039C216.069 26.3086 216.382 25.9701 216.629 25.4883C216.876 24.9935 217.065 24.3294 217.195 23.4961C217.326 22.6628 217.391 21.6081 217.391 20.332C217.391 19.043 217.326 17.9818 217.195 17.1484C217.065 16.3151 216.876 15.6576 216.629 15.1758C216.382 14.681 216.069 14.3359 215.691 14.1406C215.314 13.9453 214.884 13.8477 214.402 13.8477C213.908 13.8477 213.471 13.9453 213.094 14.1406C212.729 14.3359 212.423 14.681 212.176 15.1758C211.928 15.6576 211.74 16.3151 211.609 17.1484C211.479 17.9818 211.414 19.043 211.414 20.332C211.414 21.6081 211.479 22.6628 211.609 23.4961C211.74 24.3294 211.928 24.9935 212.176 25.4883C212.423 25.9701 212.729 26.3086 213.094 26.5039C213.471 26.6992 213.908 26.7969 214.402 26.7969ZM232.312 10.625H242.918V22.4609C242.918 22.9818 242.964 23.418 243.055 23.7695C243.146 24.1211 243.283 24.4076 243.465 24.6289C243.66 24.8372 243.895 24.9935 244.168 25.0977C244.441 25.1888 244.767 25.2344 245.145 25.2344C245.613 25.2344 246.023 25.1628 246.375 25.0195C246.727 24.8633 247.085 24.5964 247.449 24.2188V10.625H258.055V29.9805H248.699L247.762 27.168C246.577 28.3268 245.294 29.1536 243.914 29.6484C242.534 30.1302 241.128 30.3711 239.695 30.3711C237.339 30.3711 235.516 29.7396 234.227 28.4766C232.951 27.2005 232.312 25.2409 232.312 22.5977V10.625ZM264.285 25C264.819 25.2865 265.333 25.5469 265.828 25.7812C266.323 26.0156 266.818 26.2174 267.312 26.3867C267.807 26.543 268.302 26.6667 268.797 26.7578C269.305 26.849 269.832 26.8945 270.379 26.8945C271.238 26.8945 271.857 26.7904 272.234 26.582C272.612 26.3737 272.801 26.1003 272.801 25.7617C272.801 25.5534 272.736 25.3776 272.605 25.2344C272.488 25.0911 272.319 24.9674 272.098 24.8633C271.876 24.7461 271.616 24.6419 271.316 24.5508C271.017 24.4466 270.685 24.3424 270.32 24.2383L269.207 23.9062C268.113 23.5807 267.169 23.2031 266.375 22.7734C265.581 22.3307 264.93 21.8359 264.422 21.2891C263.914 20.7422 263.536 20.1562 263.289 19.5312C263.042 18.8932 262.918 18.2161 262.918 17.5C262.918 16.5755 263.126 15.6836 263.543 14.8242C263.96 13.9518 264.604 13.1771 265.477 12.5C266.349 11.8229 267.462 11.2826 268.816 10.8789C270.184 10.4753 271.805 10.2734 273.68 10.2734C274.383 10.2734 275.112 10.319 275.867 10.4102C276.635 10.4883 277.378 10.5924 278.094 10.7227C278.81 10.8529 279.48 11.0026 280.105 11.1719C280.73 11.3281 281.258 11.4909 281.688 11.6602L279.969 14.8047C279.682 14.6484 279.344 14.5117 278.953 14.3945C278.576 14.2643 278.185 14.1536 277.781 14.0625C277.378 13.9583 276.987 13.8802 276.609 13.8281C276.245 13.776 275.932 13.75 275.672 13.75C274.917 13.75 274.376 13.8542 274.051 14.0625C273.725 14.2708 273.562 14.5247 273.562 14.8242C273.562 14.9414 273.595 15.0651 273.66 15.1953C273.725 15.3255 273.855 15.4622 274.051 15.6055C274.246 15.7487 274.52 15.8984 274.871 16.0547C275.223 16.2109 275.685 16.3737 276.258 16.543L277.352 16.875C278.562 17.2396 279.565 17.6497 280.359 18.1055C281.167 18.5612 281.811 19.056 282.293 19.5898C282.788 20.1107 283.133 20.6641 283.328 21.25C283.536 21.8359 283.641 22.4349 283.641 23.0469C283.641 23.9844 283.413 24.8958 282.957 25.7812C282.501 26.6667 281.772 27.4479 280.77 28.125C279.78 28.8021 278.497 29.349 276.922 29.7656C275.346 30.1693 273.439 30.3711 271.199 30.3711C270.236 30.3711 269.35 30.332 268.543 30.2539C267.736 30.1758 266.974 30.0586 266.258 29.9023C265.542 29.7461 264.852 29.5573 264.188 29.3359C263.536 29.1016 262.892 28.8411 262.254 28.5547L264.285 25Z" fill="#EDE1CF"/>
</svg>
